<svg width="218" height="218" viewBox="0 0 218 218" fill="none" xmlns="http://www.w3.org/2000/svg">
<g id="doddle">
<path id="Vector" fill-rule="evenodd" clip-rule="evenodd" d="M114.066 190C152.26 190 160.985 180.726 166.776 177.061C172.567 173.397 168.967 166.043 172.765 160.496C178.832 151.636 182.509 156.202 184.517 144.708C186.524 133.214 182.874 129.963 182.874 119.701C182.874 99.1408 191.266 89.4084 180.549 78.6513C169.832 67.8942 145.599 62.3855 127.899 62.3855C95.0461 62.3855 103.995 28.3543 60.1764 44.2114C45.0758 49.676 24.5722 47.9205 27.8902 74.2382C29.3311 85.6667 18.331 97.3537 20.2186 110.341C23.666 134.061 32.7707 130.843 49.9492 146.858C52.8311 149.545 57.0346 149.517 60.1764 152.272C65.4439 156.892 65.7824 164.076 75.6299 168.921C91.5085 176.734 86.851 190 114.066 190Z" fill="url(#paint0_linear_1010_665)" fill-opacity="0.9"/>
<g id="planet-bg">
<path id="plant-bg" d="M120.328 187.754C142.485 187.754 160.448 172.402 160.448 153.464C160.448 134.526 142.485 119.173 120.328 119.173C98.171 119.173 80.209 134.526 80.209 153.464C80.209 172.402 98.171 187.754 120.328 187.754Z" fill="#62E2A5"/>
<path id="Vector_2" fill-rule="evenodd" clip-rule="evenodd" d="M86.3167 172.16L86.767 172.486C85.7508 173.398 84.2219 172.264 83.3647 171.202C81.9864 169.493 80.5877 167.676 80.1683 165.521C79.9296 164.295 80.025 163.032 80.1215 161.786L80.5104 156.764C80.6827 154.538 80.8554 152.309 81.2408 150.11C82.2834 144.16 84.9079 138.494 88.7723 133.851L88.8112 133.805C89.4937 132.985 90.239 132.09 90.2256 131.027C90.198 128.779 91.4926 126.678 93.1925 125.207C94.8923 123.735 96.9737 122.791 99.0232 121.866C99.9516 121.447 101.164 121.072 101.884 121.793C103.364 123.276 105.834 122.331 107.789 121.578C110.189 120.654 112.753 120.155 115.325 120.114C115.4 120.113 115.475 120.112 115.551 120.111H115.551C117.095 120.089 118.833 120.064 119.776 118.867C120.375 118.106 121.522 118.15 122.485 118.265L129.106 119.057C129.612 119.117 130.218 119.255 130.378 119.739C130.806 121.037 132.314 121.567 133.623 121.961C138.273 123.363 142.819 125.267 146.767 128.096C150.715 130.926 154.052 134.732 155.823 139.255C152.944 135.32 149.99 131.311 145.995 128.517C144.852 127.717 143.636 127.026 142.401 126.376C139.488 124.84 136.456 123.516 133.306 122.555C118.684 118.092 101.769 122.231 90.8607 132.942C89.2789 134.495 87.7959 136.206 86.8989 138.233L88.084 138.601C86.2057 139.44 84.8108 141.279 84.5088 143.314C85.2645 142.02 86.342 140.915 87.6166 140.126C87.2518 141.344 86.3028 142.324 85.3727 143.284C84.187 144.507 83.0319 145.699 83.1546 147.316C83.7173 145.839 85.1352 144.724 86.7036 144.525C84.2161 146.956 81.5469 149.808 81.626 153.285C82.5334 151.277 84.0743 149.562 85.9729 148.444L83.2395 152.118C82.2056 153.507 81.1167 155.094 81.353 156.81C82.2524 155.196 83.5383 153.799 85.0727 152.769C84.3338 154.449 83.279 155.99 81.9797 157.286C83.2153 157.137 84.4047 156.625 85.3628 155.831C84.9611 156.392 84.5992 157.024 84.5858 157.714C84.5722 158.403 85.0189 159.143 85.7014 159.242C85.9081 158.78 86.556 158.585 86.9832 158.857C85.6883 160.117 85.6749 162.451 86.9553 163.726C87.0693 163.127 87.5748 162.622 88.1741 162.509C87.2187 164.179 87.0469 166.276 87.7178 168.08C87.9209 167.058 88.4877 166.112 89.2932 165.452C88.8287 167.876 87.8021 170.19 86.3167 172.16ZM85.7511 171.388C86.5597 171.38 87.0626 170.475 87.1469 169.671C87.248 168.709 87.0088 167.747 86.7716 166.809L85.3648 161.245C85.1 161.329 85.0695 161.617 85.0372 161.918C85.0096 162.176 84.9811 162.443 84.805 162.602C84.4489 162.159 84.4085 161.489 84.7088 161.007C85.0119 160.519 84.8137 159.837 84.3835 159.458C83.9536 159.078 83.3551 158.949 82.7817 158.93C82.4718 158.92 82.1422 158.944 81.8887 159.122C81.6353 159.301 81.5019 159.68 81.6818 159.933C82.2181 160.684 82.6215 161.529 82.8677 162.419C82.886 162.485 82.904 162.553 82.9218 162.62C83.0444 163.082 83.1703 163.557 83.508 163.886C83.7693 164.141 83.8359 164.529 83.8888 164.89L84.3187 167.813C84.3969 168.346 84.4751 168.888 84.3856 169.418C84.296 169.949 84.0094 170.475 83.5284 170.715L85.0646 171.238C85.2875 171.314 85.5157 171.391 85.7511 171.388ZM102.495 123.467C102.192 123.531 101.938 123.265 101.722 123.038L101.696 123.011C101.474 122.779 101.092 122.577 100.859 122.797C98.1321 125.362 95.0295 127.526 91.681 129.199C91.0732 129.503 90.9915 130.322 90.9912 131.001C90.9912 131.228 91.2084 131.547 91.3499 131.369C92.0406 130.504 92.9384 129.833 93.8258 129.171C96.3227 127.309 98.8494 125.43 101.712 124.203C102.059 124.054 102.466 123.843 102.495 123.467ZM129.897 120.582C129.742 120.219 129.303 120.089 128.916 120.016C127.86 119.817 126.786 119.727 125.713 119.637C124.239 119.513 122.768 119.39 121.35 118.985C120.896 118.855 120.507 119.316 120.258 119.717C121.005 119.639 121.757 119.607 122.509 119.621C123.816 119.645 125.117 119.808 126.414 119.971C127.074 120.053 127.738 120.137 128.37 120.342C128.444 120.365 128.518 120.391 128.593 120.416C129.024 120.565 129.471 120.718 129.897 120.582ZM115.938 126.155C116.237 126.223 116.522 126.447 116.566 126.75C116.611 127.052 116.404 127.347 116.14 127.501C115.876 127.655 115.564 127.698 115.261 127.739L114.348 127.859C114.257 127.871 114.163 127.885 114.083 127.932C113.854 128.067 113.87 128.435 114.057 128.625C114.245 128.814 114.532 128.861 114.799 128.861C116.04 128.858 117.215 127.965 117.594 126.783C117.684 126.503 117.732 126.191 117.62 125.918C117.564 125.779 117.469 125.659 117.364 125.553C116.876 125.058 116.149 124.84 115.456 124.889C114.762 124.938 114.103 125.233 113.539 125.639C113.268 125.834 113.011 126.061 112.857 126.357C112.703 126.653 112.67 127.028 112.842 127.313C112.908 127.422 113.009 127.519 113.135 127.539C113.26 127.56 113.405 127.479 113.42 127.353C113.464 127.002 113.719 126.706 114.024 126.528C114.329 126.349 114.681 126.271 115.027 126.202C115.328 126.142 115.639 126.087 115.938 126.155ZM91.4775 143.493C91.8188 141.476 93.4483 139.836 95.3478 139.075C96.3944 138.657 97.5923 138.473 98.6448 138.877C98.9046 138.976 99.1561 139.114 99.3433 139.319C99.5194 139.513 99.6299 139.757 99.7133 140.004C100.248 141.591 99.7054 143.425 98.5564 144.643C97.4074 145.86 95.7346 146.499 94.0648 146.619C93.5299 146.657 92.9556 146.635 92.5138 146.331C92.0719 146.027 91.8525 145.352 92.1929 144.937C92.3536 144.945 92.4402 145.088 92.5289 145.235C92.5731 145.308 92.6175 145.382 92.6716 145.44C92.857 145.64 93.1637 145.654 93.436 145.643C94.6199 145.593 95.8218 145.3 96.7854 144.61C97.749 143.92 98.4416 142.794 98.4213 141.609C98.4149 141.227 98.3317 140.837 98.1155 140.522C97.7603 140.006 97.0891 139.772 96.4639 139.814C95.8384 139.855 95.2521 140.132 94.7196 140.463C94.0188 140.898 93.3712 141.444 92.932 142.142C92.4928 142.84 92.2783 143.703 92.464 144.507C92.2998 144.803 91.8118 144.744 91.6101 144.472C91.4086 144.2 91.4211 143.827 91.4775 143.493ZM102.381 160.119C101.515 160.676 100.797 161.549 100.663 162.57C100.555 163.396 100.832 164.219 101.105 165.007C101.318 165.621 101.538 166.249 101.944 166.757C102.677 167.675 103.89 168.055 105.05 168.242C105.366 168.293 105.845 168.15 105.732 167.851C104.508 167.828 103.303 167.261 102.506 166.331C101.71 165.401 101.333 164.124 101.499 162.91C101.533 162.655 101.592 162.401 101.699 162.166C101.916 161.693 102.32 161.328 102.758 161.045C103.7 160.436 104.847 160.151 105.965 160.248C107.043 160.341 108.12 160.813 108.777 161.672C109.435 162.53 109.592 163.797 109.012 164.71C108.917 164.858 108.848 165.121 109.021 165.151C109.956 164.648 110.475 163.538 110.422 162.477C110.37 161.417 109.81 160.425 109.041 159.693C108.615 159.288 108.111 158.947 107.541 158.809C106.788 158.628 106.001 158.815 105.252 159.012C104.256 159.274 103.247 159.562 102.381 160.119ZM144.923 161.436C141.79 160.267 138.387 159.831 135.061 160.173C133.666 160.317 132.267 160.601 131.013 161.229C128.648 162.413 126.956 164.85 126.675 167.481C126.394 170.111 127.531 172.851 129.593 174.509C130.375 175.137 131.262 175.608 132.151 176.079C132.757 176.401 133.364 176.723 133.939 177.096C134.103 177.252 133.734 177.409 133.518 177.339C131.509 176.691 129.557 175.704 128.124 174.154C126.381 172.268 125.531 169.59 125.867 167.044C126.203 164.497 127.72 162.132 129.893 160.763C131.612 159.681 133.667 159.224 135.697 159.152C137.728 159.078 139.752 159.368 141.759 159.679C143.013 159.874 144.483 160.246 144.923 161.436ZM111.964 165.361C111.822 165.035 111.25 164.95 111.146 165.29C110.481 167.452 108.371 169.087 106.111 169.191C105.601 169.214 105.089 169.167 104.58 169.118C103.484 169.012 102.354 168.886 101.394 168.346C100.014 167.57 99.1834 165.977 99.1735 164.393C99.1636 162.81 99.9147 161.271 101.055 160.172C100.897 159.729 100.217 159.943 99.8798 160.271C98.0094 162.089 97.6885 165.228 99.0009 167.482C100.314 169.736 103.064 171 105.657 170.713C108.249 170.426 110.59 168.69 111.795 166.377C111.96 166.062 112.106 165.687 111.964 165.361ZM95.7279 176.31C95.3056 177.93 95.2655 179.648 95.612 181.286C95.7672 182.02 95.7843 182.425 95.7872 182.501C95.7878 182.509 95.7878 182.514 95.7881 182.514C95.7884 182.514 95.7884 182.509 95.789 182.501C95.7922 182.425 95.8108 182.019 95.9695 181.283C96.3238 179.642 96.2395 177.909 95.7279 176.31ZM97.9719 177.29C97.3717 178.548 97.4461 180.104 98.1634 181.299C98.3245 181.567 98.4468 181.785 98.5369 181.946C98.6584 182.163 98.7215 182.276 98.7436 182.268C98.7674 182.26 98.7419 182.108 98.6887 181.791C98.6675 181.664 98.6416 181.51 98.6128 181.327L97.9719 177.29ZM99.6615 178.896C99.4066 179.699 99.5941 180.628 100.14 181.269C100.698 181.924 100.88 182.134 100.71 181.291C100.537 180.43 100.176 179.607 99.6615 178.896ZM148.554 169.762C147.788 172.838 145.34 175.168 142.968 177.269C143.076 177.503 143.427 177.419 143.651 177.293C146.055 175.94 147.999 173.735 148.887 171.124C149.774 168.513 149.553 165.513 148.153 163.137C148.035 162.938 147.885 162.726 147.658 162.681C147.431 162.637 147.169 162.9 147.303 163.089C148.649 164.996 149.118 167.497 148.554 169.762ZM114.001 141.993C113.995 141.507 114.002 140.98 114.296 140.592C114.7 140.058 115.468 140.002 116.138 139.993C116.436 139.988 116.739 139.985 117.03 140.054C117.649 140.201 118.143 140.658 118.582 141.119C118.68 141.221 118.783 141.346 118.759 141.485C118.729 141.657 118.514 141.737 118.342 141.702C118.228 141.678 118.126 141.621 118.024 141.565H118.024C117.972 141.536 117.92 141.507 117.867 141.483C117.251 141.201 116.527 141.51 115.974 141.902C115.887 141.963 115.794 142.042 115.792 142.149C115.789 142.256 115.881 142.338 115.967 142.402C116.715 142.949 117.672 143.203 118.592 143.097C118.813 143.072 119.071 142.991 119.128 142.777C119.151 142.694 119.142 142.595 119.134 142.5C119.12 142.341 119.106 142.191 119.24 142.136C119.31 142.107 119.389 142.128 119.461 142.149C119.959 142.294 120.542 142.527 120.638 143.037C120.666 143.184 120.647 143.338 120.6 143.48C120.463 143.897 120.08 144.223 119.647 144.291C119.454 144.322 119.258 144.305 119.064 144.289C118.556 144.245 118.049 144.202 117.546 144.121C116.624 143.972 115.721 143.697 114.872 143.306C114.578 143.17 114.272 143.003 114.122 142.715C114.009 142.497 114.004 142.24 114.001 141.993ZM132.952 129.996C132.655 129.194 131.939 128.561 131.107 128.367C130.849 128.307 130.559 128.292 130.34 128.441C130.122 128.59 130.047 128.954 130.255 129.117C130.457 129.275 130.335 129.647 130.088 129.717C129.841 129.788 129.576 129.62 129.453 129.395C129.33 129.17 129.317 128.903 129.315 128.647C129.313 128.305 129.344 127.923 129.597 127.692C129.694 127.604 129.814 127.547 129.933 127.494C130.425 127.274 130.97 127.087 131.496 127.206C131.998 127.318 132.398 127.689 132.747 128.065C133.034 128.374 133.305 128.698 133.56 129.034C133.784 129.33 133.999 129.646 134.083 130.008C134.168 130.369 134.095 130.789 133.815 131.034C133.542 131.273 133.121 131.293 132.789 131.146C132.496 131.015 132.245 130.728 132.267 130.407C132.289 130.087 132.682 129.821 132.952 129.996ZM135.599 152.531C136.334 152.51 137.019 151.943 137.178 151.225C137.275 150.788 137.156 150.268 136.775 150.033C136.497 149.862 136.147 149.874 135.821 149.895C135.369 149.924 134.901 149.963 134.508 150.189C134.115 150.414 133.824 150.882 133.947 151.317C134.147 152.026 134.863 152.552 135.599 152.531ZM135.693 151.47C135.551 151.508 135.348 151.471 135.335 151.324C135.33 151.263 135.363 151.206 135.4 151.157C135.609 150.887 136.007 150.781 136.323 150.914C136.213 151.182 135.973 151.394 135.693 151.47ZM136.073 140.585C135.953 140.309 136.185 139.986 136.467 139.881C136.693 139.796 136.938 139.804 137.182 139.813H137.182C137.243 139.816 137.303 139.818 137.363 139.818C137.664 139.822 137.997 139.772 138.193 139.543C138.261 139.462 138.308 139.343 138.256 139.25C138.201 139.154 138.071 139.137 137.96 139.132C137.192 139.092 136.286 139.115 135.843 139.744C135.748 139.879 135.515 139.834 135.426 139.694C135.337 139.555 135.357 139.372 135.408 139.215C135.589 138.651 136.11 138.242 136.679 138.077C137.247 137.913 137.858 137.965 138.435 138.096C138.629 138.14 138.831 138.198 138.974 138.338C139.086 138.449 139.149 138.601 139.191 138.754C139.387 139.485 139.097 140.322 138.49 140.774C137.883 141.227 136.998 141.266 136.354 140.869C136.238 140.798 136.127 140.709 136.073 140.585ZM133.441 153.502C133.797 153.929 134.22 154.318 134.732 154.535C135.768 154.975 137.092 154.569 137.703 153.624C137.925 153.28 138.024 152.755 137.696 152.511C137.169 153.619 135.64 154.108 134.568 153.512C134.363 153.397 134.176 153.252 134.006 153.089C133.236 152.351 132.834 151.146 133.286 150.179C133.433 149.864 133.66 149.592 133.907 149.347C134.447 148.814 135.22 148.378 135.941 148.615C135.971 148.625 136 148.636 136.03 148.647C136.131 148.684 136.233 148.721 136.339 148.715C136.476 148.707 136.62 148.584 136.585 148.451C136.574 148.411 136.55 148.377 136.524 148.345C136.079 147.777 135.205 147.602 134.575 147.954C133.825 148.373 133.063 148.866 132.664 149.627C132.015 150.865 132.545 152.429 133.441 153.502ZM145.383 134.405C145.35 134.452 145.358 134.518 145.366 134.581C145.375 134.656 145.384 134.727 145.322 134.757C145.098 134.867 144.829 134.856 144.59 134.783C143.937 134.582 143.5 133.983 143.13 133.409C142.914 133.073 142.699 132.716 142.664 132.318C142.629 131.92 142.833 131.472 143.216 131.359C143.643 131.234 144.062 131.552 144.395 131.848C144.77 132.182 145.153 132.526 145.386 132.972C145.618 133.417 145.67 133.993 145.383 134.405ZM143.963 132.914C144.055 133.004 144.105 133.124 144.156 133.244C144.205 133.363 144.255 133.482 144.345 133.571C144.458 133.684 144.63 133.734 144.787 133.701C144.493 133.246 144.153 132.822 143.773 132.437C143.672 132.468 143.664 132.618 143.725 132.705C143.762 132.758 143.814 132.796 143.866 132.835C143.899 132.86 143.933 132.885 143.963 132.914ZM88.0645 173.966C88.0282 174.562 88.0738 175.253 88.5511 175.613C88.7104 175.524 88.6993 175.297 88.6793 175.116C88.556 174.001 88.9019 172.927 89.2502 171.845C89.4993 171.071 89.7495 170.293 89.83 169.495C89.8533 169.263 89.7914 168.946 89.5586 168.937C89.3844 168.93 89.2719 169.114 89.2016 169.274C88.5496 170.754 88.1628 172.351 88.0645 173.966ZM134.358 152.46C134.897 152.698 135.494 152.941 136.057 152.77C136.281 152.702 136.481 152.573 136.677 152.445C136.676 152.774 136.393 153.051 136.077 153.145C135.762 153.239 135.422 153.189 135.1 153.119C134.743 153.042 134.306 152.822 134.358 152.46ZM91.7644 179.948C91.9016 179.703 91.9252 179.412 91.9455 179.133L92.108 176.903C92.1879 175.809 92.2676 174.711 92.1961 173.616C92.187 173.478 92.1731 173.333 92.0926 173.22C92.0121 173.108 91.8417 173.048 91.7316 173.131C91.6505 173.192 91.6298 173.304 91.6159 173.405C91.4394 174.671 91.345 175.948 91.3337 177.226C91.3255 178.152 91.3677 179.11 91.7644 179.948ZM89.3278 178.031C89.1848 178.152 88.947 178.046 88.8685 177.876C88.7897 177.707 88.8214 177.509 88.8551 177.325C89.208 175.401 89.6083 173.486 90.0553 171.581C90.0666 171.534 90.0786 171.484 90.1094 171.446C90.2271 171.301 90.4651 171.447 90.5486 171.614C90.7538 172.025 90.6555 172.516 90.5529 172.963L89.4507 177.769C89.4289 177.865 89.4028 177.968 89.3278 178.031ZM93.1445 178.117C93.0832 178.839 93.1913 179.563 93.2991 180.279C93.3375 180.534 93.5212 180.873 93.7517 180.757L94.2005 175.955C94.2188 175.76 94.2313 175.543 94.1101 175.389C93.9889 175.235 93.6822 175.241 93.6436 175.433L93.3125 177.08C93.2433 177.423 93.1741 177.768 93.1445 178.117ZM139.511 163.401C138.232 162.743 136.676 162.483 135.348 163.035C134.357 163.447 131.553 165.226 131.181 167.506C130.931 169.032 130.933 170.591 131.467 172.065L131.553 172.296C131.712 172.714 132.219 173.193 132.503 172.848C131.675 171.352 131.521 169.5 132.089 167.888C132.657 166.275 133.938 164.929 135.521 164.282C135.853 164.146 136.201 164.039 136.559 164.005C137.283 163.936 138.006 164.171 138.654 164.503C140.048 165.217 141.775 166.405 142.438 167.823C143.078 169.191 143.549 170.822 142.97 172.217C142.391 173.612 138.589 174.621 138.589 174.621L139.009 175.388C139.009 175.388 141.138 174.968 142.438 174.021C147.896 170.047 140.733 164.031 139.511 163.401Z" fill="#00160A"/>
</g>
<g id="planet-1">
<path id="Vector_3" d="M42.9196 145.043C48.3825 145.043 52.811 140.878 52.811 135.741C52.811 130.604 48.3825 126.44 42.9196 126.44C37.4568 126.44 33.0283 130.604 33.0283 135.741C33.0283 140.878 37.4568 145.043 42.9196 145.043Z" fill="url(#paint1_diamond_1010_665)" fill-opacity="0.85"/>
<path id="planet-1_2" fill-rule="evenodd" clip-rule="evenodd" d="M43.0334 143.774C41.1031 143.981 39.0589 143.535 37.5517 142.311C36.4844 141.444 35.7345 140.239 35.2081 138.969C34.6367 137.59 34.3082 136.11 34.2422 134.619C34.2172 134.058 34.2306 133.486 34.3957 132.949C34.6672 132.065 35.3212 131.355 35.9885 130.715C37.4087 129.353 39.078 128.11 41.0246 127.824C42.3512 127.629 43.7005 127.895 44.9989 128.229C46.0189 128.491 47.0374 128.801 47.9544 129.318C49.9815 130.461 51.386 132.64 51.5892 134.958C51.7924 137.276 51.5424 138.812 48.4142 141.692C46.7888 142.753 44.9637 143.567 43.0334 143.774ZM46.4374 136.498C46.1244 136.596 45.8122 136.771 45.489 136.714C44.8289 136.598 44.7106 135.692 44.8571 135.038C45.2768 133.165 46.5822 131.511 48.3061 130.668C47.9158 129.96 46.8792 129.908 46.1459 130.249C45.4128 130.589 44.8396 131.202 44.1307 131.59C43.7778 131.783 43.3596 131.92 42.9756 131.8C42.344 131.602 42.103 130.775 42.3097 130.146C42.5166 129.517 43.0326 129.048 43.5281 128.609C41.7324 128.672 39.9559 129.211 38.4278 130.156C37.2314 130.896 36.0967 132.109 36.2557 133.507C37.2445 132.711 38.4057 132.13 39.6358 131.815C39.8968 131.749 40.2244 131.715 40.3875 131.929C40.5113 132.091 40.4759 132.325 40.3965 132.513C40.0032 133.445 38.847 133.758 38.1299 134.472C38.0357 134.566 37.9453 134.674 37.9226 134.805C37.8779 135.062 38.1223 135.296 38.3793 135.338C38.6362 135.381 38.894 135.288 39.1376 135.196C39.6437 135.005 40.1497 134.814 40.6558 134.623C41.0223 134.485 41.4571 134.353 41.783 134.57C42.1199 134.795 42.1515 135.306 41.9612 135.663C41.7708 136.021 41.4211 136.26 41.0845 136.486C40.2736 137.03 39.4626 137.573 38.6516 138.117C37.9726 138.572 37.212 139.185 37.2765 140C37.3372 140.767 38.181 141.289 38.9487 141.239C39.7166 141.19 40.3924 140.72 40.9592 140.2C41.5257 139.68 42.0373 139.085 42.6954 138.687C43.125 138.426 43.7377 138.282 44.0865 138.643C44.356 138.922 44.3301 139.371 44.2289 139.745C43.9374 140.824 43.1491 141.759 42.1341 142.228C42.9599 142.418 43.8208 142.454 44.6597 142.333C45.1379 142.264 45.6331 142.132 45.979 141.794C46.3249 141.457 46.4589 140.863 46.159 140.484C45.7113 139.919 45.7291 139.092 46.0151 138.43C46.3011 137.768 46.8118 137.234 47.312 136.715C47.1687 136.42 46.7505 136.4 46.4374 136.498ZM50.26 137.781C50.7096 136.741 50.7259 135.566 50.612 134.439C50.4861 133.193 50.0519 131.768 48.8779 131.332C47.1577 132.046 45.8302 133.639 45.4381 135.459C45.405 135.613 45.3794 135.777 45.4396 135.921C45.4997 136.066 45.6785 136.171 45.8171 136.099C46.2927 135.849 46.8778 135.708 47.3612 135.942C47.8445 136.175 48.08 136.904 47.6884 137.271C47.2559 137.677 46.8118 138.099 46.5784 138.645C46.345 139.19 46.3787 139.896 46.8179 140.295C47.1481 140.594 47.149 141.182 46.8196 141.483C47.7559 141.209 48.4233 140.404 49.0302 139.641C49.4944 139.057 49.9638 138.465 50.26 137.781ZM39.4818 132.406C38.508 132.81 37.5625 133.283 36.6553 133.82C36.4394 133.947 36.2214 134.082 36.0635 134.277C35.8505 134.541 35.7694 134.884 35.7037 135.216C35.4909 136.289 35.3813 137.444 35.8319 138.441C35.9758 138.759 36.1722 139.05 36.3679 139.339C36.4257 139.425 36.4911 139.516 36.5902 139.545C36.6891 139.573 36.8199 139.494 36.7966 139.393C36.7248 139.084 36.9594 138.793 37.1905 138.575C38.545 137.3 40.3695 136.569 41.5877 135.163C41.4028 134.944 41.0522 135.047 40.7889 135.159C40.1614 135.427 39.5143 135.649 38.8548 135.823C38.5144 135.913 38.1351 135.986 37.8247 135.82C37.3701 135.578 37.2963 134.915 37.5363 134.459C37.7764 134.004 38.2328 133.71 38.6729 133.442C39.1129 133.174 39.5748 132.895 39.839 132.453C39.7908 132.327 39.6062 132.354 39.4818 132.406ZM42.8151 140.946C43.2453 140.6 43.7104 140.193 43.7575 139.643C43.7819 139.355 43.5973 139.003 43.3101 139.03C43.2218 139.039 43.141 139.083 43.0648 139.128C41.8132 139.876 40.9898 141.338 39.5777 141.701C39.9768 141.88 40.3927 142.021 40.8183 142.12C40.945 142.15 41.077 142.176 41.2043 142.15C41.3528 142.119 41.4769 142.021 41.5949 141.927C42.0016 141.6 42.4082 141.273 42.8151 140.946ZM43.979 128.994C43.7005 129.302 43.422 129.61 43.1436 129.918C42.923 130.162 42.6861 130.484 42.809 130.789C42.8994 131.014 43.1666 131.127 43.4081 131.109C43.6499 131.09 43.87 130.966 44.0726 130.833C44.7946 130.36 45.4445 129.714 46.2871 129.525C45.7029 129.312 45.1187 129.099 44.5344 128.886C44.4129 128.842 44.2772 128.798 44.1574 128.847C44.0856 128.877 44.031 128.936 43.979 128.994Z" fill="#C7C7C7" fill-opacity="0.85"/>
</g>
<path id="Vector_4" d="M97.0517 79.1982C97.6304 79.1982 98.0995 78.7358 98.0995 78.1654C98.0995 77.595 97.6304 77.1326 97.0517 77.1326C96.473 77.1326 96.0039 77.595 96.0039 78.1654C96.0039 78.7358 96.473 79.1982 97.0517 79.1982Z" fill="#FFB61D"/>
<g id="astronut">
<path id="Vector_5" d="M89.3796 77.0266C89.9415 77.0266 90.397 76.5711 90.397 76.0093C90.397 75.4474 89.9415 74.9919 89.3796 74.9919C88.8178 74.9919 88.3623 75.4474 88.3623 76.0093C88.3623 76.5711 88.8178 77.0266 89.3796 77.0266Z" fill="#FFB61D"/>
<path id="body" fill-rule="evenodd" clip-rule="evenodd" d="M39.0402 102.578C37.3541 98.3668 38.8272 95.8438 39.7712 92.5499C40.5598 89.7985 46.7272 85.3295 49.5658 89.9895C50.4009 91.3605 50.0658 92.6563 51.8909 93.8611C56.309 96.778 53.8988 90.7266 54.063 89.1971C54.1433 88.4507 53.5128 86.7299 53.7474 86.0099C53.9939 85.2542 55.3065 84.1808 55.3065 82.6144C55.3065 81.048 52.6364 80.4448 51.8909 80.06C45.2672 76.64 41.0548 70.9281 43.154 68.029C46.079 63.9902 57.5414 70.345 60.9858 70.9281C61.0303 70.9357 61.6454 67.7244 62.1479 66.9893C63.1531 65.5182 64.264 64.0902 65.5894 62.8993C66.183 62.366 66.9875 62.0366 67.7784 61.93C70.1456 61.6105 72.5672 61.3486 74.9381 61.6378C75.7758 61.7402 80.7651 55.9658 82.7106 54.1032C97.6363 39.8125 127.557 57.227 111.247 80.8907C108.25 85.2403 104.417 86.6232 103.921 88.1606C102.822 91.575 109.744 91.126 112.677 91.4908C117.686 92.1137 120.155 94.6869 117.045 99.0978C115.108 101.845 103.743 101.705 98.7647 99.7184C96.9169 98.9809 94.6334 95.7563 92.8871 98.4014C91.6837 100.224 86.9921 104.091 81.9595 106.278C79.6879 107.265 77.1004 106.67 75.162 107.552C72.4335 108.793 64.3782 114.003 60.9858 114.002C57.5691 114.001 53.1477 109.889 52.6364 109.62C51.8566 109.209 45.8255 108.03 42.8459 103.433C41.9451 102.042 39.6576 104.119 39.0402 102.578Z" fill="url(#paint2_linear_1010_665)"/>
<path id="structure" fill-rule="evenodd" clip-rule="evenodd" d="M54.8513 92.1985C54.7786 93.6583 53.6523 95.2389 52.2013 95.0662C51.5461 94.3088 51.0334 93.3685 50.5267 92.4392C49.5539 90.6545 48.6028 88.9105 46.7083 88.5794C44.8477 88.2542 43.1147 89.6226 41.9559 91.1143C40.2773 93.2749 39.1928 95.892 38.8507 98.6063C38.6498 100.202 39.3041 102.415 40.9031 102.24C42.7293 102.039 44.028 103.476 45.3488 104.936C46.5714 106.289 47.8131 107.662 49.5094 107.778C51.5295 107.916 53.1794 109.126 54.8495 110.351C55.9651 111.169 57.0897 111.994 58.3393 112.51C60.6905 113.481 63.4015 113.294 65.8016 112.45C68.2013 111.606 70.3371 110.154 72.3587 108.609L72.4645 108.528C73.5679 107.684 74.7233 106.801 76.0952 106.615C83.1114 105.665 89.6371 101.549 93.5184 95.6275C99.0207 100.026 106.714 101.53 113.468 99.5259C114.614 99.1859 115.767 98.7301 116.617 97.8895C117.467 97.0492 117.948 95.7438 117.531 94.6238C117.074 93.3993 115.709 92.7435 114.411 92.5857C113.7 92.4994 112.983 92.5249 112.266 92.5505C111.674 92.5714 111.083 92.5927 110.494 92.5508C106.926 92.2988 103.956 89.8383 101.254 87.4944C105.168 86.2939 108.342 83.2785 110.437 79.7615C112.532 76.2447 113.655 72.2382 114.508 68.2345C114.957 66.1275 115.29 63.7539 114.087 61.9672C113.548 61.1675 112.758 60.583 111.971 60.0002C111.084 59.3442 110.201 58.6908 109.684 57.7359C108.691 55.8992 106.753 54.8101 104.915 53.8177C100.106 51.2212 94.5816 48.5485 89.3985 50.2826C87.3795 50.9582 85.6355 52.2525 83.9348 53.5335C81.1113 55.6608 78.086 58.1562 77.5486 61.6503C72.9281 59.5834 66.9509 61.2341 64.0462 65.3796C63.3818 66.3277 62.8717 67.3733 62.3621 68.4176C61.7625 69.6474 61.1634 70.8758 60.3138 71.9417C56.9022 70.3875 53.4261 68.9745 49.8975 67.7078C48.3331 67.1463 46.4644 66.6501 45.116 67.6221C44.035 68.4016 43.7036 69.9317 44.0208 71.2261C44.3382 72.5204 45.1852 73.6177 46.0938 74.5928C48.0645 76.7083 50.432 78.4535 53.0361 79.7097C53.1201 79.7501 53.2047 79.7906 53.2895 79.831C54.1049 80.2196 54.9431 80.6187 55.4861 81.3317C56.0855 82.1191 56.1227 83.4361 55.2823 83.9584C54.0409 84.7301 53.8124 86.4611 54.0668 87.9004C54.1537 88.3922 54.2816 88.8791 54.4089 89.3657C54.6545 90.3028 54.8995 91.2376 54.8513 92.1985ZM88.5506 99.8945C85.423 103.179 81.0218 105.1 76.5214 105.662C72.021 106.223 67.4255 105.493 63.1266 104.048C64.2828 104.048 65.1191 102.534 64.504 101.555C62.1348 104.316 58.5227 105.61 55.0806 106.791C51.9714 107.858 48.2546 107.083 45.9705 104.719C43.6865 102.354 43.0682 98.4746 44.6745 95.6063C45.3729 94.3593 46.5571 93.2743 47.9808 93.1519C49.4045 93.0295 50.9375 94.2099 50.8055 95.6328C50.0131 95.4953 49.1795 96.1682 49.147 96.9716C52.2117 96.6414 55.0931 94.8852 56.7912 92.3122C57.3772 91.4242 57.8225 90.4569 58.2684 89.4886C58.5678 88.8387 58.8671 88.1885 59.2095 87.5612C60.0615 86.0004 61.2852 84.5124 62.9807 83.9761C64.3416 83.5457 65.8126 83.7846 67.2192 84.027L73.4679 85.1045C73.9356 84.7008 73.1781 84.0538 72.5732 83.9273C70.6205 83.5192 68.6402 83.2678 66.6599 83.0164C64.8235 82.7833 62.987 82.5498 61.1718 82.1917C57.3996 81.4476 53.6078 80.0862 50.8619 77.3943C52.7245 76.3229 54.1418 74.5022 54.7231 72.4335C54.8408 72.0149 54.5603 71.3275 54.2205 71.5987C53.8322 72.9416 53.4113 74.342 52.4385 75.346C51.4656 76.3496 49.7582 76.7906 48.6572 75.9293C47.2277 74.8114 45.7249 73.5921 45.1596 71.8676C44.5942 70.1433 45.4883 67.8273 47.2908 67.616C48.0997 67.5209 48.8906 67.8552 49.6367 68.1822L57.163 71.4816C59.4028 72.4634 61.6761 73.4552 64.0959 73.8112C65.7949 74.0615 67.5226 73.9912 69.2384 73.9205L74.1027 73.72C74.3015 73.7115 74.5056 73.7022 74.6887 73.6243C75.1773 73.4156 75.343 72.8189 75.4508 72.2986C76.7562 65.9999 78.5098 59.3529 83.2544 55.0095C85.3774 53.0658 88.0219 51.6973 90.835 51.0869C93.6076 50.4849 96.6666 50.662 99.0538 52.1955C95.0493 52.4903 91.1611 54.1787 88.212 56.9037C86.9729 55.5812 84.667 56.6622 83.6787 58.1815C82.1466 60.5365 82.1745 63.8079 83.7465 66.1365C85.0693 68.0967 85.5599 70.4354 86.0517 72.7797C86.5037 74.9341 86.9566 77.0929 88.0576 78.9668C89.7993 81.9313 93.0426 83.8343 96.4297 84.4241C99.8168 85.0141 103.328 84.3979 106.548 83.1905C102.945 86.7846 97.1889 88.0275 92.4237 86.2407C92.0764 86.1105 91.7311 85.9652 91.3852 85.8196C90.2905 85.3586 89.1915 84.8958 88.0172 84.9095C88.7052 85.6382 89.5839 86.1849 90.5414 86.4805C89.4374 88.335 88.2791 90.1572 87.0685 91.9439C86.9136 92.1724 86.7371 92.4159 86.472 92.4933C86.1767 92.5793 85.8683 92.4322 85.5992 92.2834C83.3735 91.053 81.3784 89.407 79.7478 87.4551L76.4862 91.423C78.1599 93.469 80.1169 95.2834 82.2838 96.7975C79.3998 100.36 75.0302 102.681 70.4636 103.075C75.1907 103.316 79.9765 101.099 82.8492 97.3369C84.6679 98.358 86.5787 99.2152 88.5506 99.8945ZM103.5 65.0058C104.545 63.867 104.932 62.2398 104.843 60.6969C104.754 59.1541 104.235 57.6702 103.66 56.2355C105.157 56.0582 106.677 56.6227 107.869 57.5444C109.061 58.4664 109.956 59.7206 110.69 61.0361C111.58 62.6313 112.263 64.3559 112.559 66.1583C113.256 70.402 111.768 74.7292 109.648 78.4715C109.237 79.1982 108.794 79.9199 108.194 80.5001C107.589 81.0843 106.845 81.5043 106.082 81.8586C102.935 83.3207 99.3154 83.7425 95.9167 83.0434C98.0862 81.2369 99.6186 78.7482 100.594 76.0991C101.57 73.4499 102.017 70.6343 102.274 67.8229L102.276 67.8072C102.34 67.0983 102.408 66.3533 102.812 65.7676C102.946 65.574 103.112 65.406 103.278 65.2377C103.353 65.1613 103.428 65.0848 103.5 65.0058ZM99.5744 76.7156C98.6382 78.9055 97.1875 80.9163 95.2214 82.2603C94.9912 82.4176 94.7438 82.5696 94.4668 82.6019C94.2221 82.6304 93.9773 82.5629 93.7425 82.4888C92.0709 81.9612 90.4911 81.0259 89.4185 79.6391C89.0296 79.136 88.7116 78.5811 88.4282 78.0114C86.3639 73.8636 86.1619 68.8312 87.8867 64.5311C87.969 64.3256 88.087 64.0951 88.3041 64.0521C88.5846 63.9963 88.8003 64.2835 88.9578 64.5224C90.2464 66.4748 92.6557 67.4631 94.9926 67.5657C97.3296 67.668 99.6285 67.0038 101.845 66.2548C101.441 67.2422 101.338 68.3182 101.236 69.3841V69.3856C101.223 69.5193 101.21 69.6527 101.197 69.7858C100.959 72.1556 100.511 74.5257 99.5744 76.7156ZM99.0986 56.3712C100.294 56.0995 101.69 56.0245 102.603 56.8427C102.898 57.1066 103.118 57.4455 103.298 57.7981C104.43 60.0098 103.986 62.9229 102.248 64.6977C100.239 66.7495 97.0578 67.0878 94.1959 66.8442C93.1693 66.7568 92.113 66.5989 91.2367 66.0571C90.1025 65.3557 89.4307 64.1204 88.8096 62.9406C91.5671 59.8592 95.0665 57.2877 99.0986 56.3712ZM108.77 93.567C108.395 94.5143 108.016 95.4746 107.893 96.4862C107.77 97.4974 107.93 98.583 108.546 99.3951C103.441 99.6777 98.2531 98.1034 94.1657 95.0319C95.4839 93.1667 96.5248 91.1062 97.2436 88.9384C97.5276 88.0821 98.6117 87.7249 99.4919 87.9231C100.302 88.1056 100.982 88.6254 101.646 89.1326L101.727 89.1945C101.757 89.2175 101.787 89.2404 101.817 89.2631C103.99 90.9126 106.385 92.243 108.77 93.567ZM73.0979 106.504C72.293 107.41 71.3306 108.163 70.3479 108.872C68.2964 110.354 66.0591 111.7 63.5655 112.13C59.9112 112.761 55.9631 111.185 53.7476 108.211L61.7183 105.237C61.9093 105.166 62.1069 105.094 62.3104 105.105C62.4252 105.112 62.5356 105.145 62.6464 105.178C62.7202 105.2 62.794 105.222 62.8693 105.236C63.1251 105.285 63.3832 105.242 63.6425 105.199C63.8038 105.173 63.9657 105.146 64.1276 105.141C64.7241 105.123 65.2726 105.396 65.8149 105.666C65.9527 105.734 66.0902 105.803 66.2277 105.866C68.3414 106.838 70.7784 106.68 73.0979 106.504ZM61.5892 72.4001C61.5331 72.2745 61.5924 72.1297 61.6517 72.0056C63.2838 68.5871 65.4435 65.4206 68.0301 62.6528C69.8494 65.179 71.0603 68.1406 71.5324 71.2179C71.6265 71.833 71.5248 72.6837 70.9071 72.7608C67.947 73.1296 64.9351 73.0796 61.9892 72.6122C61.8334 72.5875 61.6535 72.5439 61.5892 72.4001ZM72.7378 72.189C72.1282 68.8385 70.863 65.6083 69.0347 62.7351C70.5822 61.9204 72.4116 61.907 74.1606 61.9125C75.2654 61.916 76.4711 61.9549 77.3129 62.6703L75.1294 69.1129C74.7585 70.2067 74.3832 71.331 74.43 72.4849L73.0496 72.507C73.0005 72.5079 72.9496 72.5085 72.9043 72.4896C72.7939 72.4434 72.7593 72.307 72.7378 72.189ZM90.4972 88.6768C90.8637 88.053 91.2131 87.3868 91.25 86.6642C92.9016 87.4072 94.72 87.7752 96.5303 87.733C96.8145 87.7263 96.8044 88.1644 96.6878 88.4236C96.3352 89.2081 95.9824 89.9935 95.5746 90.7507C95.156 91.5277 94.6808 92.2729 94.2058 93.017L93.0679 94.8009C92.9121 95.045 92.7513 95.2947 92.5197 95.4685C91.8985 95.9356 91.012 95.7109 90.303 95.3927C89.127 94.8642 88.0448 94.1286 87.1208 93.2295C88.4038 91.8378 89.538 90.3086 90.4972 88.6768ZM47.7936 90.2182C48.3406 90.7699 48.6982 91.4768 49.047 92.1712L47.4053 92.4052C46.8585 92.4834 46.2978 92.5659 45.8145 92.8333C45.3442 93.0935 44.9814 93.5106 44.662 93.9431C43.3272 95.7516 42.5872 97.9921 42.5825 100.24C42.5808 101.052 41.6213 101.631 40.8359 101.425C40.0505 101.219 39.5169 100.439 39.3811 99.6387C39.2454 98.8382 39.4367 98.0197 39.6765 97.2442C40.5203 94.5143 42.0297 91.9363 44.2632 90.1543C44.6899 89.8136 45.1613 89.495 45.7005 89.4087C46.4679 89.2863 47.2463 89.6665 47.7936 90.2182ZM116.723 94.7878C116.913 95.0317 117.054 95.3287 117.045 95.6377C117.034 96.0371 116.781 96.3873 116.508 96.6792C114.924 98.3772 112.489 98.9554 110.182 99.228C110.03 99.246 109.871 99.262 109.728 99.2062C109.611 99.1606 109.517 99.0702 109.433 98.9763C108.877 98.3502 108.656 97.4756 108.702 96.6393C108.747 95.8031 109.035 94.9979 109.395 94.2413C109.47 94.0821 109.558 93.9149 109.712 93.8295C109.835 93.7612 109.982 93.7559 110.123 93.7521L112.914 93.6789C113.602 93.6609 114.296 93.6437 114.969 93.7853C115.642 93.9271 116.301 94.2451 116.723 94.7878ZM85.6137 68.413C84.4763 66.3054 83.6255 64.0437 83.0916 61.709L83.5511 60.4818C84.1197 59.3811 84.8365 58.3574 85.6756 57.4464C86.0174 57.0752 86.6101 57.0342 87.0819 57.213C87.5536 57.3918 87.9332 57.7473 88.2992 58.0943L89.9473 59.6555C89.9964 59.702 90.0475 59.752 90.0638 59.8177C90.0946 59.9409 89.9926 60.0537 89.9005 60.1415C89.1287 60.8751 88.4431 61.7024 87.8934 62.6145C87.0624 63.9928 86.5549 65.5374 86.0544 67.0672L85.6137 68.413ZM89.8258 56.5764C93.1812 54.7795 96.8515 53.0884 100.636 53.4928C102.615 53.7041 104.508 54.4915 106.156 55.6065C101.434 54.393 96.1713 55.5123 92.3525 58.5428C91.7625 59.0111 90.8768 59.5197 90.3513 58.9797C90.2164 58.8413 90.1281 58.6469 90.042 58.4576C89.9045 58.1545 89.7726 57.8641 89.4642 57.8356C89.1697 57.8086 89.0389 57.4095 89.1636 57.1415C89.2886 56.8738 89.5653 56.716 89.8258 56.5764ZM80.6078 89.4471C81.27 90.0833 81.9996 90.6452 82.7271 91.2056L85.6669 93.4699C84.7615 94.2675 83.8758 95.0875 83.0108 95.9287C80.9511 94.7079 79.1127 93.1153 77.6111 91.2507C78.4331 90.3944 79.2222 89.5067 79.9759 88.5896C80.0942 88.9279 80.3494 89.1986 80.6078 89.4471ZM61.7061 83.3227C60.1583 84.5322 58.5579 85.805 57.7065 87.5752C57.5402 87.9211 57.4028 88.285 57.2656 88.6483C56.9737 89.4206 56.6831 90.1909 56.1174 90.7789C55.8669 90.7054 55.7683 90.4101 55.7073 90.156L55.1181 87.706C55.0388 87.3752 54.9585 87.0357 55.0039 86.6985C55.0486 86.3631 55.214 86.0576 55.3765 85.7608L57.1048 82.6025C57.1432 82.5321 57.1833 82.46 57.2449 82.4086C57.3978 82.2816 57.6242 82.3223 57.8173 82.3693L61.7061 83.3227ZM86.8525 94.1722C87.9082 95.2575 89.22 96.0917 90.6507 96.5873C90.9181 96.3356 91.4352 96.4745 91.5407 96.8262C91.0486 97.4651 90.508 98.0665 89.9255 98.6243C89.6653 98.8734 89.2485 98.8208 88.8977 98.7403C87.1833 98.3467 85.532 97.6799 84.0249 96.7725C83.9241 96.7117 83.8107 96.6254 83.8206 96.5082C83.8273 96.4292 83.8895 96.3681 83.9476 96.3144L86.0634 94.3657C86.2854 94.1614 86.6424 93.9559 86.8525 94.1722ZM113.865 66.9509C113.846 67.1899 113.812 67.4564 113.626 67.6064C113.624 65.731 113.159 63.8574 112.283 62.1988C112.124 61.898 111.952 61.6038 111.76 61.3227C111.736 61.2867 111.711 61.2504 111.685 61.2143C111.492 60.9353 111.294 60.6499 111.248 60.3167L113.515 62.6851C113.723 62.9028 113.938 63.1304 114.036 63.4153C114.132 63.6902 114.109 63.9902 114.085 64.28L113.865 66.9509ZM111.26 63.9414L110.747 63.294C110.182 62.5822 109.489 61.8047 108.58 61.8038C108.053 61.8032 107.568 62.0732 107.11 62.3357L106.399 62.7432C106.205 62.8549 106.006 62.9705 105.869 63.1476C105.474 63.6585 105.762 64.4047 106.135 64.9314C106.393 65.2962 106.703 65.6461 107.114 65.8214C107.645 66.0484 108.257 65.9481 108.814 65.7944C109.577 65.5842 110.313 65.2805 111.003 64.8927C111.224 64.7689 111.468 64.5872 111.457 64.3343C111.45 64.1855 111.353 64.0579 111.26 63.9414ZM106.775 64.4407C106.687 64.3 106.595 64.1498 106.594 63.9838C106.591 63.6591 106.915 63.4411 107.2 63.2856L108.214 62.7328C108.367 62.6494 108.526 62.5639 108.7 62.552C108.875 62.5403 109.068 62.6241 109.127 62.7886C109.3 63.2737 109.725 63.6609 110.225 63.7867C110.387 63.8274 110.439 64.0512 110.362 64.1995C110.286 64.3477 110.129 64.4343 109.98 64.5085C109.446 64.7735 108.887 64.9895 108.314 65.1532C108.084 65.2188 107.841 65.2761 107.608 65.2209C107.228 65.1305 106.983 64.7718 106.775 64.4407ZM99.5666 69.4434C98.5618 69.5605 98.3705 71.3725 98.8373 72.339C98.9332 72.5378 99.0835 72.7425 99.3027 72.7704C99.677 72.8177 99.884 72.3559 99.9668 71.9873L99.9689 71.9789C100.078 71.4935 100.566 69.3271 99.5666 69.4434ZM94.3837 71.8205C94.5845 71.3516 94.6517 70.8264 94.5747 70.3221C94.5392 70.0878 94.4686 69.85 94.3122 69.6721C94.1555 69.4943 93.8968 69.3908 93.6739 69.471C93.4722 69.5434 93.3452 69.741 93.2495 69.9329C92.9123 70.611 92.7781 71.388 92.8679 72.1399C92.9097 72.4896 93.3507 72.6805 93.6849 72.5701C94.0192 72.4594 94.2448 72.144 94.3837 71.8205ZM97.3462 70.7476C97.5023 70.6183 97.6991 70.8531 97.7624 71.0456C97.9705 71.678 98.1426 72.3224 98.2781 72.9744C98.3635 73.3866 98.4341 73.8144 98.3432 74.2254C98.2147 74.8047 97.7743 75.2759 97.2636 75.5776C96.7526 75.8793 96.1713 76.0354 95.5978 76.1883C95.4464 76.2287 95.2563 76.2575 95.1583 76.1351C95.0752 76.0311 95.1162 75.8683 95.2109 75.7747C95.3037 75.6828 95.4327 75.6404 95.5568 75.5997L95.5641 75.5974C96.4579 75.3038 97.4127 74.7739 97.6209 73.8566C97.7351 73.352 97.5962 72.8454 97.4563 72.3367C97.329 71.8734 97.2011 71.4077 97.2639 70.9409C97.2735 70.87 97.291 70.7932 97.3462 70.7476ZM91.1053 68.6842C90.8698 68.3583 91.0585 67.863 91.3997 67.6503C91.741 67.4378 92.1723 67.4407 92.5708 67.4921C93.0469 67.5535 93.5152 67.6747 93.9614 67.8517C94.0564 67.8892 94.1587 67.9372 94.2003 68.0305C94.2779 68.2031 94.0776 68.3921 93.8884 68.3921C93.7361 68.3918 93.5977 68.3185 93.4614 68.2461C93.4283 68.2284 93.3954 68.211 93.3623 68.1947C92.6176 67.825 91.6299 68.0392 91.1053 68.6842ZM99.6892 68.572C100.043 68.513 100.419 68.5946 100.716 68.7955C100.84 68.8795 101.018 68.7382 101.019 68.5883C101.02 68.4383 100.908 68.3121 100.79 68.2194C100.536 68.0197 100.22 67.9002 99.8974 67.8819C99.6892 67.8703 99.4587 67.9104 99.3247 68.07C99.1908 68.2299 99.2312 68.5292 99.432 68.5851C99.5038 68.6048 99.5791 68.5914 99.6529 68.5784C99.6651 68.576 99.6773 68.574 99.6892 68.572ZM95.2964 77.7678C95.3961 77.7117 95.5275 77.8097 95.5423 77.9233C95.5571 78.0367 95.4926 78.1451 95.4185 78.2323C95.0476 78.6703 94.4081 78.8052 93.8434 78.7026C93.2783 78.6 92.7722 78.2962 92.2958 77.9759C92.0717 77.8253 91.8511 77.6698 91.634 77.5094C91.409 77.3431 91.1692 77.1397 91.1422 76.8612C91.1152 76.5828 91.4721 76.3023 91.6759 76.4938C92.1764 76.9653 92.6885 77.4446 93.3111 77.7364C93.934 78.0282 94.6976 78.1058 95.2964 77.7678ZM84.5757 80.0007C82.4899 75.4663 81.6197 70.3796 82.0795 65.4098C82.0873 65.3246 82.0981 65.234 82.1542 65.1697C82.2333 65.079 82.3957 65.0828 82.4707 65.177C82.444 67.911 82.4184 70.6613 82.8646 73.3587C83.311 76.0561 84.2586 78.7247 85.989 80.8416C86.0404 80.9047 86.093 80.9677 86.1456 81.0308C86.4433 81.3878 86.7432 81.7476 86.9121 82.1778C85.7869 82.1563 85.046 81.023 84.5757 80.0007ZM86.6217 59.5253C86.5834 59.4837 86.5383 59.4468 86.4863 59.4244C86.3357 59.3593 86.1593 59.4259 86.0276 59.5235C85.5027 59.9121 85.5006 60.8211 86.0238 61.212C86.279 60.9946 86.5412 60.7684 86.6906 60.4685C86.8403 60.1682 86.8493 59.7717 86.6217 59.5253ZM91.1492 64.3137C91.7151 64.773 92.3598 65.1348 93.0469 65.3784C95.2635 66.1644 97.7549 65.6711 99.8942 64.6933C100.221 64.5439 100.638 64.6227 100.888 64.8808C99.5143 65.8598 97.8316 66.3978 96.1449 66.3972C95.7728 66.3972 95.4013 66.3716 95.0307 66.3394C94.2727 66.2731 93.5088 66.176 92.7955 65.9103C92.0825 65.645 91.4166 65.1956 91.0126 64.5506L91.1492 64.3137ZM115.289 94.1908C115.267 94.266 115.328 94.3384 115.384 94.3936L116.226 95.2296C116.318 94.9892 116.215 94.7093 116.038 94.5221C115.861 94.3352 115.623 94.2213 115.39 94.1117C115.345 94.1134 115.302 94.1469 115.289 94.1908Z" fill="#121212"/>
</g>
<g id="planet-2">
<path id="Vector_6" d="M163.5 88.9439C171.125 88.9439 177.307 82.7624 177.307 75.1372C177.307 67.512 171.125 61.3306 163.5 61.3306C155.875 61.3306 149.693 67.512 149.693 75.1372C149.693 82.7624 155.875 88.9439 163.5 88.9439Z" fill="#42A8E1" fill-opacity="0.98"/>
<path id="planet-2_2" fill-rule="evenodd" clip-rule="evenodd" d="M170.606 61.6769C171.638 62.0344 172.61 61.104 173.499 60.4701C174.875 59.4891 176.67 59.1182 178.322 59.4734C178.596 59.5321 178.883 59.6207 179.064 59.8353C179.228 60.0312 179.276 60.2989 179.302 60.5538C179.465 62.1144 179.074 63.727 178.216 65.0408C177.799 65.6797 177.276 66.2488 176.902 66.9144C176.529 67.5804 176.316 68.3939 176.582 69.1093C178.163 73.3632 177.505 78.3807 174.88 82.0829C172.255 85.7851 167.738 88.0663 163.2 87.9814C160.88 87.9381 158.606 87.3187 156.42 86.5397C155.466 86.1999 154.417 85.827 153.47 86.1859C151.742 86.8408 149.923 87.2541 148.082 87.4105C147.625 87.4495 147.148 87.4695 146.726 87.289C146.095 87.019 145.714 86.3348 145.642 85.6523C145.569 84.9695 145.758 84.2864 145.996 83.6426C146.715 81.7009 148.947 78.6678 150.298 77.9691C150.189 75.6115 150.201 73.226 150.711 70.9213C151.22 68.6166 152.261 66.3802 153.967 64.7496C154.672 64.0761 155.479 63.5154 156.324 63.0291C160.597 60.5686 165.946 60.0623 170.606 61.6769ZM164.098 61.4854C160.83 61.5621 157.649 62.8748 155.094 64.9141C154.344 65.5128 153.64 66.1782 153.077 66.9554C152.633 67.5682 152.282 68.2442 151.989 68.9416C150.249 73.0798 150.646 78.0519 153.021 81.8617C153.073 81.9445 153.132 82.0326 153.224 82.0649C153.338 82.1047 153.461 82.0468 153.568 81.9899C161.027 78.015 167.666 72.5098 172.953 65.9157C173.079 65.7585 173.211 65.5762 173.184 65.3768C173.164 65.2271 173.057 65.1056 172.953 64.9963C170.697 62.6309 167.366 61.4089 164.098 61.4854ZM168.666 86.1897C172.209 84.5265 174.9 81.2397 176.051 77.4991C176.312 76.6518 176.499 75.7763 176.517 74.89C176.533 74.1451 176.429 73.403 176.325 72.665C176.175 71.595 176.024 70.5251 175.874 69.4552C175.834 69.1715 175.561 68.7968 175.361 69.0023C169.818 74.7069 163.765 79.916 157.298 84.5472C157.083 84.7015 156.846 84.8919 156.834 85.1564C156.821 85.4625 157.113 85.6845 157.378 85.8374C160.769 87.7927 165.124 87.8529 168.666 86.1897ZM146.814 85.7543C147.071 86.1676 147.63 86.2522 148.117 86.2656C150.672 86.3365 153.199 85.5877 155.485 84.4443C157.771 83.3011 159.84 81.7716 161.85 80.1938C164.532 78.0891 167.133 75.8835 169.668 73.6047C172.808 70.7826 175.894 67.7893 177.955 64.1051C178.354 63.3927 178.722 62.6111 178.659 61.797C178.597 60.9828 177.947 60.1605 177.132 60.1925C175.4 60.2599 173.697 60.9258 172.379 62.0507C172.117 62.2745 172.302 62.7509 172.625 62.8719C172.948 62.9931 173.307 62.8727 173.623 62.7335C173.938 62.5943 174.266 62.4315 174.609 62.4699C175.132 62.528 175.504 63.0637 175.535 63.5892C175.566 64.1147 175.334 64.6199 175.06 65.0696C174.553 65.9018 173.891 66.627 173.222 67.3356C167.277 73.6341 160.419 79.0695 152.929 83.4188C152.255 83.8106 151.572 84.1949 150.846 84.4803C150.466 84.63 150.029 84.75 149.657 84.5788C149.048 84.2983 148.999 83.4426 149.182 82.7973C149.457 81.8283 150.05 80.9522 150.847 80.3371C150.696 79.9113 150.545 79.4858 150.394 79.0599C148.425 80.318 147.043 82.4576 146.706 84.7701C146.657 85.1038 146.635 85.468 146.814 85.7543ZM152.413 82.8325C152.427 82.7886 152.402 82.743 152.377 82.7037C152.123 82.2997 151.868 81.8954 151.614 81.4911C151.499 81.3083 151.276 81.1013 151.104 81.2312C150.482 81.6995 150.037 82.3971 149.873 83.1583C149.841 83.3086 149.823 83.4763 149.905 83.6063C150.057 83.8484 150.42 83.7943 150.689 83.6981C151.263 83.4926 151.815 83.2281 152.335 82.9107C152.368 82.8909 152.402 82.8683 152.413 82.8325ZM174.545 63.5904C174.519 63.4854 174.394 63.4398 174.286 63.4352C173.959 63.4206 173.616 63.6904 173.637 64.0177C173.658 64.3452 174.144 64.5513 174.348 64.2938C174.409 64.2162 174.435 64.1171 174.459 64.0211C174.484 63.9258 174.508 63.8308 174.532 63.7357C174.544 63.688 174.557 63.638 174.545 63.5904Z" fill="#53E897"/>
</g>
</g>
<defs>
<linearGradient id="paint0_linear_1010_665" x1="102.999" y1="29.1979" x2="102.999" y2="200.668" gradientUnits="userSpaceOnUse">
<stop stop-color="#34718B"/>
<stop offset="0.0001" stop-color="#0FE2B0" stop-opacity="0.36"/>
<stop offset="1" stop-color="#3CDC14" stop-opacity="0.86"/>
</linearGradient>
<radialGradient id="paint1_diamond_1010_665" cx="0" cy="0" r="1" gradientUnits="userSpaceOnUse" gradientTransform="translate(42.9196 135.741) rotate(90) scale(9.30133 9.89133)">
<stop offset="0.28125" stop-color="#26DAB9"/>
<stop offset="1" stop-color="#0D822E"/>
</radialGradient>
<linearGradient id="paint2_linear_1010_665" x1="113" y1="60.5" x2="78.3453" y2="114.002" gradientUnits="userSpaceOnUse">
<stop offset="0.541289" stop-color="#9D7272"/>
<stop offset="1" stop-color="#36C2C2" stop-opacity="0"/>
</linearGradient>
</defs>
</svg>
